# xmcd
#
# Track frame offsets:
#	150
#	13262
#	27880
#	40845
#	54900
#	67010
#	80872
#	92245
#	103832
#	122925
#	139062
#	156677
#	175447
#	187777
#	198127
#	211435
#	224797
#	237482
#	250880
#	267545
#	291270
#	310037
#	324632
#	335787
#
# Disc length: 4648
#
# Revision: 4
# Processed by: cddbd v1.5.1PL0 Copyright (c) Steve Scherf et al.
# Submitted via: OrangeCD 5.0
# Normalized: r3:DSETVAR1
#
DISCID=82122618
DTITLE=Various Artist - Country Moods
DYEAR=1992
DGENRE=Country
TTITLE0=Dr. Hook - When You're In Love With A Beautiful Woman
TTITLE1=Bellamy Brothers - Let Your Love Flow
TTITLE2=Kenny Rogers - Ruby Don't Take Your Love To Town
TTITLE3=Elvis Costello and the Attractions - Good Year For The Roses
TTITLE4=Dolly Parton - Jolene
TTITLE5=Glen Campbell - Wichita Lineman
TTITLE6=Crystal Gayle - Don't It Make My Brown Eyes Blue
TTITLE7=Johnny Cash - A Thing Called Love
TTITLE8=Bobbie Gentry - Ode To Billie Joe
TTITLE9=Rita Coolidge - We're All Alone
TTITLE10=Linda Ronstadt - Blue Bayou
TTITLE11=America - A Horse With No Name
TTITLE12=Patsy Cline - Crazy
TTITLE13=Kris Kristofferson - Help Me Make It Through The Night
TTITLE14=Charlie Rich - Behind Closed Doors
TTITLE15=Tammy Wynette - D.I.V.O.R.C.E.
TTITLE16=Don Williams - You're My Best Friend
TTITLE17=Faron Young - It's Four In The Morning
TTITLE18=Emmylou Harris - Here, There and Everywhere
TTITLE19=Willie Nelson - Me and Bobby McGee
TTITLE20=Juice Newton - Angel Of The Morning
TTITLE21=Jeannie C. Riley - Harper Valley P.T.A.
TTITLE22=Roger Miller - King Of The Road
TTITLE23=Jim Reeves - Distant Drums
EXTD=
EXTT0=
EXTT1=
EXTT2=
EXTT3=
EXTT4=
EXTT5=
EXTT6=
EXTT7=
EXTT8=
EXTT9=
EXTT10=
EXTT11=
EXTT12=
EXTT13=
EXTT14=
EXTT15=
EXTT16=
EXTT17=
EXTT18=
EXTT19=
EXTT20=
EXTT21=
EXTT22=
EXTT23=
PLAYORDER=
